PathFileType  4	(X/Y/Z) C:\Users\antoi\Documents\MyRepositories\mobilecap\ResultsAnalysis
DataRate	CameraRate	NumFrames	NumMarkers	Units	OrigDataRate	OrigDataStartFrame	OrigNumFrames
100.0	100.0	4	51	mm	100.0	196	223
Frame#	Time	r_knee			r_shank_antsup			r_ankle			r_calc			r_5meta			r_toe			L_knee			L_shank_antsup			L_ankle			L_calc			L_5meta			L_toe			r_sh2			r_sh3			r_sh4			L_sh2			L_sh3			r_thigh1			r_thigh2			r_thigh3			r_thigh4			r_thigh5			L_thigh1			L_thigh2			L_thigh3			L_thigh4			r.ASIS			r.PSIS			L.ASIS			L.PSIS			C7			R_Shoulder			L_Shoulder			R_Sternum			L_Sternum			R_humerus			R_elbow_med			R_elbow_lat			R_forearm			R_wrist_radius			R_wrist_ulna			L_humerus			L_elbow_med			L_elbow_lat			L_forearm			L_wrist_radius			L_wrist_ulna			R_HJC			L_HJC			R_HJC_reg			L_HJC_reg			
		X1	Y1	Z1	X2	Y2	Z2	X3	Y3	Z3	X4	Y4	Z4	X5	Y5	Z5	X6	Y6	Z6	X7	Y7	Z7	X8	Y8	Z8	X9	Y9	Z9	X10	Y10	Z10	X11	Y11	Z11	X12	Y12	Z12	X13	Y13	Z13	X14	Y14	Z14	X15	Y15	Z15	X16	Y16	Z16	X17	Y17	Z17	X18	Y18	Z18	X19	Y19	Z19	X20	Y20	Z20	X21	Y21	Z21	X22	Y22	Z22	X23	Y23	Z23	X24	Y24	Z24	X25	Y25	Z25	X26	Y26	Z26	X27	Y27	Z27	X28	Y28	Z28	X29	Y29	Z29	X30	Y30	Z30	X31	Y31	Z31	X32	Y32	Z32	X33	Y33	Z33	X34	Y34	Z34	X35	Y35	Z35	X36	Y36	Z36	X37	Y37	Z37	X38	Y38	Z38	X39	Y39	Z39	X40	Y40	Z40	X41	Y41	Z41	X42	Y42	Z42	X43	Y43	Z43	X44	Y44	Z44	X45	Y45	Z45	X46	Y46	Z46	X47	Y47	Z47	X48	Y48	Z48	X49	Y49	Z49	X50	Y50	Z50	X51	Y51	Z51	

196	1.95000000	-236.23424	760.25249	-403.45238	-198.88331	694.06459	-409.65591	-276.17942	353.24199	-383.54755	-344.85328	345.89913	-427.94785	-199.68201	257.18881	-351.48590	-139.95115	271.35235	-397.38148	-212.31609	779.16618	-780.36912	-175.74891	693.70646	-801.83013	-228.11094	379.94805	-817.01614	-289.78324	351.37865	-760.94270	-145.21885	296.02675	-872.82169	-91.17191	314.64210	-830.52605	-225.32185	584.55577	-377.31650	-276.69075	709.45505	-389.03169	-295.91718	597.47202	-376.66178	-264.53311	700.52271	-792.36026	-263.44605	579.85863	-816.09348	-197.90609	1080.75174	-393.02160	-194.66467	968.58432	-391.91214	-251.15621	943.77568	-366.57652	-311.69804	1075.47376	-385.69535	-303.02304	958.16660	-384.36674	-230.21167	1053.93107	-797.88661	-195.30039	919.73271	-790.48415	-332.35992	1025.34254	-746.33948	-293.34186	890.43382	-755.80535	-179.67016	1240.94429	-453.84015	-361.31352	1300.30808	-526.78800	-179.77273	1233.21269	-702.06166	-368.81686	1307.57184	-624.89233	-228.64417	1695.96522	-580.71554	-134.29899	1636.77552	-420.93438	-163.36972	1655.90753	-753.49045	-94.55601	1626.99505	-566.78068	-92.89994	1633.73723	-612.02749	-168.16405	1517.00919	-344.34723	-304.82020	1337.64369	-361.37809	-271.19301	1347.77624	-293.16528	-160.75348	1261.54960	-322.36628	-73.27369	1177.30844	-360.61172	-82.38127	1148.83446	-341.85401	-195.30773	1571.18296	-836.18954	-366.27336	1398.50794	-835.45888	-329.80068	1423.93640	-906.80517	-236.45563	1378.25916	-865.85613	-124.79158	1297.83266	-815.34707	-125.85872	1278.65528	-843.73187	-263.92577	1170.17560	-474.38857	-267.56223	1170.79813	-680.82682	-252.44346	1165.38493	-487.94042	-264.90924	1177.45212	-650.92497	
197	1.96000000	-235.02403	753.66157	-403.31717	-198.03828	687.14043	-409.83010	-278.39953	347.18329	-382.85596	-347.96822	338.11231	-426.22216	-200.56475	252.89410	-350.01524	-141.65037	267.03429	-397.01446	-208.63595	772.79259	-780.54963	-173.47975	686.74805	-801.05902	-230.07495	374.14179	-817.45201	-293.60337	345.47597	-763.18568	-146.06463	290.42172	-871.41230	-93.21230	308.13736	-826.78171	-225.43845	577.54952	-377.28063	-275.51527	703.13495	-388.79280	-296.04819	591.41213	-376.07532	-262.04102	694.92847	-793.19668	-262.79756	574.30218	-817.06859	-197.37968	1074.05194	-393.38026	-193.86576	961.96343	-392.04343	-250.39710	937.06873	-366.58506	-311.12108	1068.69937	-385.82444	-302.21829	951.50885	-384.17153	-226.37999	1047.41894	-797.88378	-191.34681	913.41645	-790.08365	-329.74145	1018.77715	-749.34294	-290.30636	883.91321	-757.97853	-180.25667	1235.69679	-453.40172	-361.98838	1293.97896	-527.67168	-179.20835	1227.50390	-701.58402	-369.00613	1301.50045	-625.62558	-230.24995	1689.19225	-578.71981	-135.88038	1630.32817	-419.18037	-166.26634	1650.97310	-751.77089	-95.48189	1621.28197	-564.69674	-94.16759	1627.83903	-610.54285	-168.47079	1509.14231	-343.55768	-302.21590	1328.53111	-360.97407	-268.84496	1338.43903	-293.40898	-157.66299	1253.41329	-323.37120	-69.54236	1170.30959	-362.17067	-78.39174	1141.50321	-343.70699	-198.36669	1566.69206	-835.18992	-369.32034	1394.81563	-834.32972	-333.95132	1420.69690	-905.66745	-240.10851	1374.47099	-866.30579	-127.93696	1292.94590	-817.76938	-129.72182	1274.28768	-846.23102	-264.29439	1164.52822	-474.36571	-266.81183	1164.82302	-680.81909	-252.42763	1159.08084	-488.11692	-264.10592	1171.59604	-651.11116	
198	1.97000000	-233.80862	746.03130	-403.21237	-196.89420	678.62555	-410.06690	-280.53326	340.22852	-382.10672	-350.87240	329.50602	-424.61038	-201.49006	247.74319	-348.51630	-143.23871	261.74648	-396.77411	-204.97797	765.54270	-780.54197	-171.32590	678.72341	-799.96026	-232.58398	367.36932	-817.59096	-297.96280	338.79489	-765.13974	-147.61945	283.37239	-869.27969	-96.01185	300.58751	-822.73352	-225.34660	569.66257	-377.24322	-274.09398	695.86979	-388.38493	-295.99201	584.33664	-375.22020	-259.65776	688.51350	-794.06578	-262.23542	567.85106	-817.92185	-196.88490	1066.37436	-394.15243	-193.19477	954.46035	-392.27182	-249.78552	929.55338	-366.66779	-310.65770	1060.84319	-385.94391	-301.56928	944.00181	-384.14551	-222.28470	1039.90285	-797.65665	-187.29486	906.12060	-789.27579	-326.95155	1011.18428	-752.14497	-287.12357	876.62151	-760.09522	-180.61065	1229.44523	-453.09573	-362.70304	1286.65441	-528.60209	-178.77631	1220.83850	-701.41746	-369.17952	1294.30652	-626.56397	-231.82188	1681.49273	-576.65573	-137.47669	1622.71690	-417.39883	-169.02087	1645.02004	-749.94780	-96.59702	1614.50784	-562.84412	-95.71465	1620.92258	-609.46791	-169.01106	1500.25570	-342.64846	-299.45895	1318.18548	-361.47496	-266.57397	1327.92850	-293.67565	-154.47319	1244.42835	-324.25792	-65.81598	1162.64954	-363.53747	-74.25141	1133.32471	-345.62752	-201.65341	1561.44264	-834.12157	-372.75689	1389.76437	-832.93210	-338.00040	1416.35305	-904.41407	-244.02069	1369.52013	-866.80053	-130.70814	1287.03860	-819.76026	-133.40402	1269.04788	-848.49063	-264.50359	1157.87794	-474.51127	-266.08410	1157.82179	-680.97484	-252.44722	1151.88282	-488.40422	-263.23331	1164.62624	-651.54772	
199	1.98000000	-232.72383	737.42007	-403.11486	-195.68697	668.89780	-410.26608	-282.54971	332.21040	-381.45370	-353.43568	320.12369	-423.33301	-202.39297	241.52219	-347.10261	-144.75165	255.22662	-396.75810	-201.59635	757.28082	-780.13856	-169.23857	669.69815	-798.63760	-235.62860	359.48254	-817.21226	-302.82496	331.17366	-766.81481	-149.77047	274.69395	-866.32900	-99.40592	292.03613	-818.52242	-225.04980	560.91877	-377.12384	-272.63563	687.63913	-387.72553	-295.63892	576.23297	-374.34892	-257.43927	681.18551	-795.13260	-261.60618	560.58384	-818.91006	-196.53917	1057.95574	-395.05388	-192.72605	946.19543	-392.28303	-249.33001	921.19842	-366.87959	-310.32572	1052.14450	-386.22104	-301.10804	935.49788	-384.51337	-218.12978	1031.44932	-797.37368	-183.37810	897.85160	-788.23919	-324.09968	1002.64174	-754.65512	-283.98466	868.49133	-762.18629	-181.18396	1221.68538	-453.31253	-363.38016	1278.25872	-529.57266	-178.98530	1213.69291	-702.24413	-369.42019	1285.91986	-627.51181	-233.36658	1672.91753	-574.48885	-139.00563	1614.01137	-415.59139	-171.66530	1637.95398	-748.27735	-97.89975	1606.60229	-561.45487	-97.47784	1613.02801	-608.73632	-169.66527	1490.48688	-341.49048	-296.95683	1306.78770	-362.31105	-264.37052	1316.36776	-293.81630	-151.22425	1234.53707	-325.19581	-61.91427	1154.20700	-364.97156	-69.93846	1124.45896	-347.55536	-205.02655	1555.36175	-832.92243	-376.03778	1383.43702	-831.53521	-341.90559	1410.92247	-903.21084	-248.03336	1363.45992	-867.16615	-133.90407	1280.61809	-821.47355	-136.94149	1262.90944	-850.43621	-264.71303	1149.79137	-475.42954	-265.79978	1150.13745	-681.89689	-252.94524	1143.90147	-489.12096	-263.03223	1156.69753	-652.69827	
